<svg width="29" height="28" viewBox="0 0 29 28" fill="none" xmlns="http://www.w3.org/2000/svg">
<path d="M21.5 15.1643H15.6666V20.9976C15.6666 21.3071 15.5437 21.6038 15.3249 21.8226C15.1061 22.0414 14.8094 22.1643 14.5 22.1643C14.1906 22.1643 13.8938 22.0414 13.675 21.8226C13.4562 21.6038 13.3333 21.3071 13.3333 20.9976V15.1643H7.49998C7.19056 15.1643 6.89381 15.0414 6.67502 14.8226C6.45623 14.6038 6.33331 14.3071 6.33331 13.9976C6.33331 13.6882 6.45623 13.3915 6.67502 13.1727C6.89381 12.9539 7.19056 12.831 7.49998 12.831H13.3333V6.99765C13.3333 6.68823 13.4562 6.39148 13.675 6.17269C13.8938 5.95389 14.1906 5.83098 14.5 5.83098C14.8094 5.83098 15.1061 5.95389 15.3249 6.17269C15.5437 6.39148 15.6666 6.68823 15.6666 6.99765V12.831H21.5C21.8094 12.831 22.1061 12.9539 22.3249 13.1727C22.5437 13.3915 22.6666 13.6882 22.6666 13.9976C22.6666 14.3071 22.5437 14.6038 22.3249 14.8226C22.1061 15.0414 21.8094 15.1643 21.5 15.1643Z" fill="#FAFAFA"/>
</svg>
