<svg width="171" height="28" viewBox="0 0 171 28" fill="none" xmlns="http://www.w3.org/2000/svg">
<path d="M16.1659 18.6666L8.08293 13.9999L0.000366211 18.6666V27.9999L16.1659 18.6666Z" fill="#FF7853"/>
<path d="M36.373 0L12.1243 13.9999L36.3729 27.9999L36.373 0Z" fill="#E2433D"/>
<path d="M0.00012207 9.33337L8.08268 14.0001L0.00012207 18.6668V9.33337Z" fill="#FF8860"/>
<path d="M16.1658 18.6666L24.2485 23.3333L16.1658 28H0.00012207L16.1658 18.6666Z" fill="#FC6B4A"/>
<path d="M16.1659 27.9999L24.2486 23.3332L32.3315 27.9999H16.1659Z" fill="#F65B3B"/>
<path d="M16.1658 9.33338L24.2485 4.66669L16.1658 0H0.00012207L16.1658 9.33338Z" fill="#FC6B4A"/>
<path d="M0.000134351 9.33337L8.08269 14.0001L16.1657 9.33337L0 0.00012207V9.33337H0.000134351Z" fill="#FF7853"/>
<path d="M16.1659 0L24.2486 4.66669L32.3315 0H16.1659Z" fill="#F65B3B"/>
<path d="M163.196 2.34657V8.12275H157.622V25.6246H151.427V8.12275H145.839V2.34657H163.196Z" fill="#E2433D"/>
<path d="M135.629 25.9422C131.803 25.9422 128.322 24.2527 127.153 21.6823L130.893 18.0144C131.86 19.444 133.665 20.3105 135.615 20.3105C136.929 20.3105 138.214 19.8339 138.214 18.8809C138.214 17.6823 135.831 16.6282 133.55 15.6173C130.604 14.3466 128.077 12.4116 128.077 8.90253C128.077 4.87365 131.904 2 136.322 2C139.875 2 142.647 3.67509 143.557 5.97112L139.99 9.40794C139.297 8.18051 137.507 7.64621 136.395 7.64621C135.124 7.64621 134.214 8.29603 134.214 9.09025C134.214 10.1588 135.86 10.5054 138.373 11.5596C142.012 13.0903 144.423 15.3141 144.423 18.7509C144.423 23.1841 140.294 25.9422 135.629 25.9422Z" fill="#E2433D"/>
<path d="M118.142 25.6246V2.34657H124.322V25.6246H118.142Z" fill="#E2433D"/>
<path d="M104.149 26C101.954 26 100.221 25.4946 98.5317 24.3971L101.651 19.2996C102.488 19.935 103.052 20.1805 104.192 20.1805H104.293C106.431 20.1805 108.12 18.5054 108.12 16.6426L108.005 2.34657L114.2 2.36101L114.301 16.6715C114.301 21.9422 109.882 26 104.322 26H104.149Z" fill="#E2433D"/>
<path d="M86.7484 2.34658C94.6617 2.3177 99.4993 6.73647 99.4993 14.0144C99.4993 21.2347 94.6617 25.6246 86.7484 25.6246H79.1527V2.36102L86.7484 2.34658ZM86.6473 19.8051C90.7773 19.8051 93.3043 17.6101 93.3043 14C93.3043 10.3466 90.7628 8.12275 86.5895 8.12275H85.1744V19.8051H86.6473Z" fill="#E2433D"/>
<path d="M68.9288 25.6246V2.34657H75.1093V25.6246H68.9288Z" fill="#E2433D"/>
<path d="M59.817 2.34657H66.5895L55.8603 25.87H53.0588L42.3729 2.34657H49.0588L54.4307 14.9531L59.817 2.34657Z" fill="#E2433D"/>
</svg>
