<svg width="37" height="28" viewBox="0 0 37 28" fill="none" xmlns="http://www.w3.org/2000/svg">
<path d="M16.1659 9.33339L8.08293 14.0001L0.000366211 9.33339V0.000144958L16.1659 9.33339Z" fill="#FF7853"/>
<path d="M36.373 28L12.1243 14.0001L36.3729 0.000141144L36.373 28Z" fill="#E2433D"/>
<path d="M0.00012207 18.6666L8.08268 13.9999L0.00012207 9.33326V18.6666Z" fill="#FF8860"/>
<path d="M16.1658 9.33339L24.2485 4.6667L16.1658 1.14441e-05H0.00012207L16.1658 9.33339Z" fill="#FC6B4A"/>
<path d="M16.1659 0.000144482L24.2486 4.66683L32.3315 0.000144482H16.1659Z" fill="#F65B3B"/>
<path d="M16.1658 18.6666L24.2485 23.3333L16.1658 28H0.00012207L16.1658 18.6666Z" fill="#FC6B4A"/>
<path d="M0.000134351 18.6666L8.08269 13.9999L16.1657 18.6666L0 27.9999V18.6666H0.000134351Z" fill="#FF7853"/>
<path d="M16.1659 28L24.2486 23.3333L32.3315 28H16.1659Z" fill="#F65B3B"/>
</svg>
